<svg width="20" height="20" viewBox="0 0 20 20" fill="none" xmlns="http://www.w3.org/2000/svg">
<g id="call-calling">
<path id="Vector" d="M14.542 18.9583C13.6003 18.9583 12.6087 18.7333 11.5837 18.3C10.5837 17.875 9.57533 17.2916 8.59199 16.5833C7.61699 15.8666 6.67533 15.0666 5.78366 14.1916C4.90033 13.3 4.10033 12.3583 3.39199 11.3916C2.67533 10.3916 2.10033 9.39163 1.69199 8.42496C1.25866 7.39163 1.04199 6.39163 1.04199 5.44996C1.04199 4.79996 1.15866 4.18329 1.38366 3.60829C1.61699 3.01663 1.99199 2.46663 2.50033 1.99163C3.14199 1.35829 3.87533 1.04163 4.65866 1.04163C4.98366 1.04163 5.31699 1.11663 5.60033 1.24996C5.92533 1.39996 6.20033 1.62496 6.40033 1.92496L8.33366 4.64996C8.50866 4.89163 8.64199 5.12496 8.73366 5.35829C8.84199 5.60829 8.90033 5.85829 8.90033 6.09996C8.90033 6.41663 8.80866 6.72496 8.63366 7.01663C8.50866 7.24163 8.31699 7.48329 8.07533 7.72496L7.50866 8.31663C7.51699 8.34163 7.52533 8.35829 7.53366 8.37496C7.63366 8.54996 7.83366 8.84996 8.21699 9.29996C8.62533 9.76663 9.00866 10.1916 9.39199 10.5833C9.88366 11.0666 10.292 11.45 10.6753 11.7666C11.1503 12.1666 11.4587 12.3666 11.642 12.4583L11.6253 12.5L12.2337 11.9C12.492 11.6416 12.742 11.45 12.9837 11.325C13.442 11.0416 14.0253 10.9916 14.6087 11.2333C14.8253 11.325 15.0587 11.45 15.3087 11.625L18.0753 13.5916C18.3837 13.8 18.6087 14.0666 18.742 14.3833C18.867 14.7 18.9253 14.9916 18.9253 15.2833C18.9253 15.6833 18.8337 16.0833 18.6587 16.4583C18.4837 16.8333 18.267 17.1583 17.992 17.4583C17.517 17.9833 17.0003 18.3583 16.4003 18.6C15.8253 18.8333 15.2003 18.9583 14.542 18.9583ZM4.65866 2.29163C4.20033 2.29163 3.77533 2.49163 3.36699 2.89163C2.98366 3.24996 2.71699 3.64163 2.55033 4.06663C2.37533 4.49996 2.29199 4.95829 2.29199 5.44996C2.29199 6.22496 2.47533 7.06663 2.84199 7.93329C3.21699 8.81663 3.74199 9.73329 4.40866 10.65C5.07533 11.5666 5.83366 12.4583 6.66699 13.3C7.50033 14.125 8.40033 14.8916 9.32533 15.5666C10.2253 16.225 11.1503 16.7583 12.067 17.1416C13.492 17.75 14.8253 17.8916 15.9253 17.4333C16.3503 17.2583 16.7253 16.9916 17.067 16.6083C17.2587 16.4 17.4087 16.175 17.5337 15.9083C17.6337 15.7 17.6837 15.4833 17.6837 15.2666C17.6837 15.1333 17.6587 15 17.592 14.85C17.567 14.8 17.517 14.7083 17.3587 14.6L14.592 12.6333C14.4253 12.5166 14.2753 12.4333 14.1337 12.375C13.9503 12.3 13.8753 12.225 13.592 12.4C13.4253 12.4833 13.2753 12.6083 13.1087 12.775L12.4753 13.4C12.1503 13.7166 11.6503 13.7916 11.267 13.65L11.042 13.55C10.7003 13.3666 10.3003 13.0833 9.85866 12.7083C9.45866 12.3666 9.02533 11.9666 8.50033 11.45C8.09199 11.0333 7.68366 10.5916 7.25866 10.1C6.86699 9.64163 6.58366 9.24996 6.40866 8.92496L6.30866 8.67496C6.25866 8.48329 6.24199 8.37496 6.24199 8.25829C6.24199 7.95829 6.35033 7.69163 6.55866 7.48329L7.18366 6.83329C7.35033 6.66663 7.47533 6.50829 7.55866 6.36663C7.62533 6.25829 7.65033 6.16663 7.65033 6.08329C7.65033 6.01663 7.62533 5.91663 7.58366 5.81663C7.52533 5.68329 7.43366 5.53329 7.31699 5.37496L5.38366 2.64163C5.30033 2.52496 5.20033 2.44163 5.07533 2.38329C4.94199 2.32496 4.80033 2.29163 4.65866 2.29163ZM11.6253 12.5083L11.492 13.075L11.717 12.4916C11.6753 12.4833 11.642 12.4916 11.6253 12.5083Z" fill="#292D32"/>
<path id="Vector_2" d="M15.4167 8.12504C15.075 8.12504 14.7917 7.84171 14.7917 7.50004C14.7917 7.20004 14.4917 6.57504 13.9917 6.04171C13.5 5.51671 12.9583 5.20837 12.5 5.20837C12.1583 5.20837 11.875 4.92504 11.875 4.58337C11.875 4.24171 12.1583 3.95837 12.5 3.95837C13.3083 3.95837 14.1583 4.39171 14.9 5.18337C15.5917 5.92504 16.0417 6.83337 16.0417 7.50004C16.0417 7.84171 15.7583 8.12504 15.4167 8.12504Z" fill="#292D32"/>
<path id="Vector_3" d="M18.3333 8.12496C17.9917 8.12496 17.7083 7.84163 17.7083 7.49996C17.7083 4.62496 15.375 2.29163 12.5 2.29163C12.1583 2.29163 11.875 2.00829 11.875 1.66663C11.875 1.32496 12.1583 1.04163 12.5 1.04163C16.0583 1.04163 18.9583 3.94163 18.9583 7.49996C18.9583 7.84163 18.675 8.12496 18.3333 8.12496Z" fill="#292D32"/>
</g>
</svg>
