<svg width="30" height="30" viewBox="0 0 30 30" fill="none" xmlns="http://www.w3.org/2000/svg">
<g id="Location">
<g id="location">
<path id="Vector" d="M14.9951 18.0194C11.5888 18.0194 8.8062 15.6066 8.8062 12.6219C8.8062 9.63729 11.5888 7.2384 14.9951 7.2384C18.4014 7.2384 21.184 9.65123 21.184 12.6359C21.184 15.6206 18.4014 18.0194 14.9951 18.0194ZM14.9951 9.33045C12.9161 9.33045 11.205 10.8088 11.205 12.6359C11.205 14.463 12.9001 15.9413 14.9951 15.9413C17.09 15.9413 18.7852 14.463 18.7852 12.6359C18.7852 10.8088 17.074 9.33045 14.9951 9.33045Z" fill="#FFF000"/>
<path id="Vector_2" d="M14.9951 30C12.6283 30 10.2455 29.219 8.39039 27.6709C3.67277 23.7099 -1.5406 17.3919 0.426411 9.87448C2.20151 3.05439 9.03007 0 14.9951 0C14.9951 0 14.9951 0 15.0111 0C20.976 0 27.8046 3.05439 29.5797 9.88842C31.5307 17.4059 26.3173 23.7099 21.5997 27.6709C19.7447 29.219 17.3619 30 14.9951 30ZM14.9951 2.09205C10.3414 2.09205 4.36043 4.25384 2.77722 10.3347C1.0501 16.9038 5.78371 22.5662 10.0695 26.1506C12.8361 28.4798 17.17 28.4798 19.9366 26.1506C24.2064 22.5662 28.94 16.9038 27.2449 10.3347C25.6457 4.25384 19.6487 2.09205 14.9951 2.09205Z" fill="#FFF000"/>
</g>
</g>
</svg>
