<svg width="20" height="20" viewBox="0 0 20 20" fill="none" xmlns="http://www.w3.org/2000/svg">
<g id="lock">
<path id="Vector" d="M15 8.95829C14.6583 8.95829 14.375 8.67496 14.375 8.33329V6.66663C14.375 4.04163 13.6333 2.29163 10 2.29163C6.36667 2.29163 5.625 4.04163 5.625 6.66663V8.33329C5.625 8.67496 5.34167 8.95829 5 8.95829C4.65833 8.95829 4.375 8.67496 4.375 8.33329V6.66663C4.375 4.24996 4.95833 1.04163 10 1.04163C15.0417 1.04163 15.625 4.24996 15.625 6.66663V8.33329C15.625 8.67496 15.3417 8.95829 15 8.95829Z" fill="#292D32"/>
<path id="Vector_2" d="M14.1665 18.9584H5.83317C2.15817 18.9584 1.0415 17.8417 1.0415 14.1667V12.5C1.0415 8.82504 2.15817 7.70837 5.83317 7.70837H14.1665C17.8415 7.70837 18.9582 8.82504 18.9582 12.5V14.1667C18.9582 17.8417 17.8415 18.9584 14.1665 18.9584ZM5.83317 8.95837C2.84984 8.95837 2.2915 9.52504 2.2915 12.5V14.1667C2.2915 17.1417 2.84984 17.7084 5.83317 17.7084H14.1665C17.1498 17.7084 17.7082 17.1417 17.7082 14.1667V12.5C17.7082 9.52504 17.1498 8.95837 14.1665 8.95837H5.83317Z" fill="#292D32"/>
<path id="Vector_3" d="M6.66683 14.1667C6.5585 14.1667 6.45016 14.1417 6.35016 14.1001C6.24183 14.0584 6.1585 14 6.07517 13.925C5.92517 13.7667 5.8335 13.5584 5.8335 13.3334C5.8335 13.2251 5.85848 13.1167 5.90015 13.0167C5.94182 12.9084 6.00017 12.8251 6.07517 12.7417C6.1585 12.6667 6.24183 12.6084 6.35016 12.5667C6.65016 12.4334 7.02516 12.5084 7.25849 12.7417C7.33349 12.8251 7.39184 12.9167 7.43351 13.0167C7.47517 13.1167 7.50016 13.2251 7.50016 13.3334C7.50016 13.5501 7.40849 13.7667 7.25849 13.925C7.10016 14.075 6.8835 14.1667 6.66683 14.1667Z" fill="#292D32"/>
<path id="Vector_4" d="M9.99984 14.1667C9.78317 14.1667 9.56651 14.075 9.40818 13.925C9.25818 13.7667 9.1665 13.5583 9.1665 13.3333C9.1665 13.225 9.18316 13.1167 9.23316 13.0167C9.27483 12.9167 9.33318 12.825 9.40818 12.7417C9.59984 12.55 9.89151 12.4583 10.1582 12.5167C10.2165 12.525 10.2665 12.5417 10.3165 12.5667C10.3665 12.5833 10.4165 12.6084 10.4665 12.6417C10.5082 12.6667 10.5498 12.7083 10.5915 12.7417C10.6665 12.825 10.7248 12.9167 10.7665 13.0167C10.8082 13.1167 10.8332 13.225 10.8332 13.3333C10.8332 13.5583 10.7415 13.7667 10.5915 13.925C10.5498 13.9583 10.5082 13.9917 10.4665 14.025C10.4165 14.0583 10.3665 14.0834 10.3165 14.1C10.2665 14.125 10.2165 14.1417 10.1582 14.15C10.1082 14.1584 10.0498 14.1667 9.99984 14.1667Z" fill="#292D32"/>
<path id="Vector_5" d="M13.3333 14.1667C13.1083 14.1667 12.9 14.075 12.7417 13.925C12.6667 13.8417 12.6083 13.75 12.5667 13.65C12.525 13.55 12.5 13.4417 12.5 13.3333C12.5 13.1167 12.5917 12.9 12.7417 12.7417C12.7833 12.7083 12.825 12.675 12.8667 12.6417C12.9167 12.6084 12.9667 12.5833 13.0167 12.5667C13.0667 12.5417 13.1167 12.525 13.1667 12.5167C13.4417 12.4583 13.725 12.55 13.925 12.7417C14.075 12.9 14.1667 13.1083 14.1667 13.3333C14.1667 13.4417 14.1417 13.55 14.1 13.65C14.0583 13.7583 14 13.8417 13.925 13.925C13.7667 14.075 13.55 14.1667 13.3333 14.1667Z" fill="#292D32"/>
</g>
</svg>
