<svg width="20" height="20" viewBox="0 0 20 20" fill="none" xmlns="http://www.w3.org/2000/svg">
<g id="user-square">
<path id="Vector" d="M12.5005 18.9583H7.50053C6.40053 18.9583 5.48386 18.85 4.70886 18.6166C4.42553 18.5333 4.24219 18.2583 4.25886 17.9666C4.46719 15.475 6.99219 13.5166 10.0005 13.5166C13.0089 13.5166 15.5255 15.4666 15.7422 17.9666C15.7672 18.2666 15.5839 18.5333 15.2922 18.6166C14.5172 18.85 13.6005 18.9583 12.5005 18.9583ZM5.60053 17.55C6.15053 17.6583 6.77553 17.7083 7.50053 17.7083H12.5005C13.2255 17.7083 13.8505 17.6583 14.4005 17.55C13.9589 15.95 12.1339 14.7666 10.0005 14.7666C7.86719 14.7666 6.0422 15.95 5.60053 17.55Z" fill="#292D32"/>
<path id="Vector_2" d="M12.5003 1.66663H7.50033C3.33366 1.66663 1.66699 3.33329 1.66699 7.49996V12.5C1.66699 15.65 2.61699 17.375 4.88366 18.0166C5.06699 15.85 7.29199 14.1416 10.0003 14.1416C12.7087 14.1416 14.9337 15.85 15.117 18.0166C17.3837 17.375 18.3337 15.65 18.3337 12.5V7.49996C18.3337 3.33329 16.667 1.66663 12.5003 1.66663ZM10.0003 11.8083C8.35033 11.8083 7.01699 10.4666 7.01699 8.81664C7.01699 7.16664 8.35033 5.83329 10.0003 5.83329C11.6503 5.83329 12.9837 7.16664 12.9837 8.81664C12.9837 10.4666 11.6503 11.8083 10.0003 11.8083Z" stroke="#292D32" stroke-width="1.5" stroke-linecap="round" stroke-linejoin="round"/>
<path id="Vector_3" d="M9.99994 12.4334C8.00827 12.4334 6.3916 10.8084 6.3916 8.81672C6.3916 6.82505 8.00827 5.20837 9.99994 5.20837C11.9916 5.20837 13.6083 6.82505 13.6083 8.81672C13.6083 10.8084 11.9916 12.4334 9.99994 12.4334ZM9.99994 6.45837C8.69994 6.45837 7.6416 7.51672 7.6416 8.81672C7.6416 10.1251 8.69994 11.1834 9.99994 11.1834C11.2999 11.1834 12.3583 10.1251 12.3583 8.81672C12.3583 7.51672 11.2999 6.45837 9.99994 6.45837Z" fill="#292D32"/>
</g>
</svg>
