<svg viewBox="0 0 20 20" fill="none" xmlns="http://www.w3.org/2000/svg">
    <g fill="currentColor">
        <path d="M6.667 4.792a.63.63 0 0 1-.625-.625v-2.5a.63.63 0 0 1 .625-.625.63.63 0 0 1 .625.625v2.5a.63.63 0 0 1-.625.625ZM13.333 4.792a.63.63 0 0 1-.625-.625v-2.5a.63.63 0 0 1 .625-.625.63.63 0 0 1 .625.625v2.5a.63.63 0 0 1-.625.625ZM7.083 12.083a.699.699 0 0 1-.316-.066.963.963 0 0 1-.275-.175.876.876 0 0 1-.242-.592.83.83 0 0 1 .067-.317c.041-.1.1-.191.175-.275a.963.963 0 0 1 .275-.175.851.851 0 0 1 .908.175.963.963 0 0 1 .175.275.83.83 0 0 1 .067.317.876.876 0 0 1-.242.592.876.876 0 0 1-.592.241ZM10 12.083a.876.876 0 0 1-.591-.241.963.963 0 0 1-.175-.275.83.83 0 0 1-.067-.317c0-.217.092-.433.242-.592a.832.832 0 0 1 .908-.175c.1.042.192.1.275.175.15.159.242.375.242.592a.699.699 0 0 1-.067.317c-.042.1-.1.191-.175.275a.963.963 0 0 1-.275.175.699.699 0 0 1-.317.066ZM7.083 15a.829.829 0 0 1-.316-.067.96.96 0 0 1-.275-.175.86.86 0 0 1-.242-.591.83.83 0 0 1 .067-.317.859.859 0 0 1 .175-.275.96.96 0 0 1 .275-.175.835.835 0 0 1 .908.175.86.86 0 0 1 .175.275.83.83 0 0 1 .067.317.86.86 0 0 1-.242.591.876.876 0 0 1-.592.242ZM17.084 8.2H2.917a.63.63 0 0 1-.625-.625.63.63 0 0 1 .625-.625h14.167a.63.63 0 0 1 .625.625.63.63 0 0 1-.625.625ZM15 19.792a3.962 3.962 0 0 1-3.958-3.959A3.962 3.962 0 0 1 15 11.875a3.962 3.962 0 0 1 3.959 3.958A3.962 3.962 0 0 1 15 19.792Zm0-6.667a2.714 2.714 0 0 0-2.708 2.708A2.714 2.714 0 0 0 15 18.542a2.714 2.714 0 0 0 2.709-2.709A2.714 2.714 0 0 0 15 13.125Z"/>
        <path d="M16.242 16.5H13.75a.63.63 0 0 1-.625-.625.63.63 0 0 1 .625-.625h2.492a.624.624 0 1 1 0 1.25Z"/>
        <path d="M15 17.775a.63.63 0 0 1-.625-.625v-2.492a.63.63 0 0 1 .625-.625.63.63 0 0 1 .625.625v2.492a.63.63 0 0 1-.625.625Z"/>
        <path d="M12.808 18.958H6.667c-3.042 0-4.792-1.75-4.792-4.791V7.083c0-3.041 1.75-4.791 4.792-4.791h6.666c3.042 0 4.792 1.75 4.792 4.791v6.55a.619.619 0 0 1-.408.584.623.623 0 0 1-.692-.175 2.719 2.719 0 0 0-2.033-.917 2.714 2.714 0 0 0-2.709 2.708c0 .492.134.975.392 1.392.142.25.325.458.525.633a.62.62 0 0 1 .183.692.596.596 0 0 1-.575.408ZM6.667 3.542c-2.384 0-3.542 1.158-3.542 3.541v7.084c0 2.383 1.158 3.541 3.542 3.541h4.85a3.915 3.915 0 0 1-.475-1.875A3.962 3.962 0 0 1 15 11.875a3.94 3.94 0 0 1 1.875.475V7.083c0-2.383-1.158-3.541-3.542-3.541H6.667Z"/>
    </g>
</svg>
