<svg xmlns="http://www.w3.org/2000/svg" viewBox="0 0 20 20" fill="none">
  <path d="M5.83301 12.2417C5.49134 12.2417 5.20801 11.9583 5.20801 11.6167V8.94165C5.20801 8.59998 5.49134 8.31665 5.83301 8.31665C6.17467 8.31665 6.45801 8.59998 6.45801 8.94165V11.6167C6.45801 11.9667 6.17467 12.2417 5.83301 12.2417Z" fill="currentColor"/>
  <path d="M10 13.6917C9.65833 13.6917 9.375 13.4083 9.375 13.0667V7.5C9.375 7.15833 9.65833 6.875 10 6.875C10.3417 6.875 10.625 7.15833 10.625 7.5V13.0667C10.625 13.4083 10.3417 13.6917 10 13.6917Z" fill="currentColor"/>
  <path d="M14.167 12.2417C13.8253 12.2417 13.542 11.9583 13.542 11.6167V8.94165C13.542 8.59998 13.8253 8.31665 14.167 8.31665C14.5087 8.31665 14.792 8.59998 14.792 8.94165V11.6167C14.792 11.9667 14.5087 12.2417 14.167 12.2417Z" fill="currentColor"/>
  <path d="M12.5003 18.9583H7.50033C2.97533 18.9583 1.04199 17.025 1.04199 12.5V7.49996C1.04199 2.97496 2.97533 1.04163 7.50033 1.04163H12.5003C17.0253 1.04163 18.9587 2.97496 18.9587 7.49996V12.5C18.9587 17.025 17.0253 18.9583 12.5003 18.9583ZM7.50033 2.29163C3.65866 2.29163 2.29199 3.65829 2.29199 7.49996V12.5C2.29199 16.3416 3.65866 17.7083 7.50033 17.7083H12.5003C16.342 17.7083 17.7087 16.3416 17.7087 12.5V7.49996C17.7087 3.65829 16.342 2.29163 12.5003 2.29163H7.50033Z" fill="currentColor"/>
</svg>