<svg viewBox="0 0 30 30" fill="currentColor" xmlns="http://www.w3.org/2000/svg">
    <path d="M15 28.438C7.588 28.438 1.562 22.413 1.562 15 1.563 7.588 7.588 1.562 15 1.562c7.413 0 13.438 6.026 13.438 13.438 0 7.413-6.025 13.438-13.438 13.438Zm0-25C8.625 3.438 3.437 8.625 3.437 15c0 6.375 5.188 11.563 11.563 11.563 6.375 0 11.563-5.188 11.563-11.563 0-6.375-5.188-11.563-11.563-11.563Z"/>
    <path d="M19.637 19.913a.837.837 0 0 1-.474-.138l-3.876-2.313c-.962-.575-1.675-1.837-1.675-2.95V9.389c0-.513.425-.938.938-.938.512 0 .938.425.938.938v5.124c0 .45.375 1.113.762 1.338l3.875 2.313c.45.262.587.837.325 1.287-.188.3-.5.463-.813.463Z"/>
</svg>
