<svg xmlns="http://www.w3.org/2000/svg" viewBox="0 0 10 10" fill="none">
  <path d="M7.41217 9.4792H2.58717C1.44551 9.4792 0.520508 8.55003 0.520508 7.40836V4.32086C0.520508 3.7542 0.870508 3.0417 1.32051 2.6917L3.56634 0.941697C4.24134 0.416697 5.32051 0.391697 6.02051 0.883363L8.59551 2.68753C9.09134 3.03336 9.47884 3.77503 9.47884 4.3792V7.41253C9.47884 8.55003 8.55384 9.4792 7.41217 9.4792ZM3.94967 1.43336L1.70384 3.18336C1.40801 3.4167 1.14551 3.94586 1.14551 4.32086V7.40836C1.14551 8.2042 1.79134 8.8542 2.58717 8.8542H7.41217C8.20801 8.8542 8.85384 8.20836 8.85384 7.41253V4.3792C8.85384 3.9792 8.56634 3.42503 8.23717 3.20003L5.66217 1.39586C5.18717 1.06253 4.40384 1.0792 3.94967 1.43336Z" fill="currentColor"/>
  <path d="M5 7.8125C4.82917 7.8125 4.6875 7.67083 4.6875 7.5V6.25C4.6875 6.07917 4.82917 5.9375 5 5.9375C5.17083 5.9375 5.3125 6.07917 5.3125 6.25V7.5C5.3125 7.67083 5.17083 7.8125 5 7.8125Z" fill="currentColor"/>
</svg>