<svg viewBox="0 0 30 30" fill="currentColor" xmlns="http://www.w3.org/2000/svg">
    <path d="M14.995 18.02c-3.406 0-6.189-2.413-6.189-5.398s2.783-5.384 6.19-5.384c3.405 0 6.188 2.413 6.188 5.398s-2.783 5.383-6.189 5.383Zm0-8.69c-2.079 0-3.79 1.479-3.79 3.306s1.695 3.305 3.79 3.305c2.095 0 3.79-1.478 3.79-3.305 0-1.827-1.711-3.306-3.79-3.306Z"/>
    <path d="M14.995 30c-2.367 0-4.75-.781-6.605-2.33C3.673 23.71-1.54 17.393.426 9.875 2.202 3.054 9.03 0 14.996 0h.015c5.965 0 12.794 3.054 14.569 9.888 1.95 7.518-3.263 13.822-7.98 17.783C19.745 29.219 17.362 30 14.995 30Zm0-27.908c-4.654 0-10.635 2.162-12.218 8.243C1.05 16.904 5.784 22.566 10.07 26.15c2.767 2.329 7.101 2.329 9.868 0 4.27-3.585 9.003-9.247 7.308-15.816-1.6-6.081-7.596-8.243-12.25-8.243Z"/>
</svg>
