<svg viewBox="0 0 20 20" fill="currentColor" xmlns="http://www.w3.org/2000/svg">
    <path d="M15 8.958a.63.63 0 0 1-.625-.625V6.667c0-2.625-.742-4.375-4.375-4.375s-4.375 1.75-4.375 4.375v1.666A.63.63 0 0 1 5 8.958a.63.63 0 0 1-.625-.625V6.667c0-2.417.583-5.625 5.625-5.625s5.625 3.208 5.625 5.625v1.666a.63.63 0 0 1-.625.625Z"/>
    <path d="M14.166 18.958H5.833c-3.675 0-4.792-1.116-4.792-4.791V12.5c0-3.675 1.117-4.792 4.792-4.792h8.334c3.675 0 4.791 1.117 4.791 4.792v1.667c0 3.675-1.116 4.791-4.791 4.791Zm-8.333-10c-2.983 0-3.542.567-3.542 3.542v1.667c0 2.975.559 3.541 3.542 3.541h8.334c2.983 0 3.541-.566 3.541-3.541V12.5c0-2.975-.558-3.542-3.541-3.542H5.832Z"/>
    <path d="M6.667 14.167a.83.83 0 0 1-.317-.067.861.861 0 0 1-.275-.175.86.86 0 0 1-.242-.592.83.83 0 0 1 .067-.316.861.861 0 0 1 .175-.275.86.86 0 0 1 .275-.175.835.835 0 0 1 .908.175.963.963 0 0 1 .176.275.83.83 0 0 1 .066.316.876.876 0 0 1-.242.592.876.876 0 0 1-.591.242ZM10 14.167a.876.876 0 0 1-.592-.242.86.86 0 0 1-.242-.592c0-.108.017-.216.067-.316.042-.1.1-.192.175-.275a.832.832 0 0 1 .909-.175c.05.016.1.041.15.075.041.025.083.066.124.1a.963.963 0 0 1 .176.275c.041.1.066.208.066.316a.86.86 0 0 1-.242.592l-.124.1a.63.63 0 0 1-.15.075.502.502 0 0 1-.159.05c-.05.008-.108.017-.158.017ZM13.333 14.167a.86.86 0 0 1-.591-.242.96.96 0 0 1-.175-.275.829.829 0 0 1-.067-.317c0-.216.092-.433.242-.591l.125-.1a.63.63 0 0 1 .15-.075c.05-.025.1-.042.15-.05a.848.848 0 0 1 .758.225.86.86 0 0 1 .242.591.829.829 0 0 1-.067.317.86.86 0 0 1-.175.275.876.876 0 0 1-.592.242Z"/>
</svg>
