<svg xmlns="http://www.w3.org/2000/svg" viewBox="0 0 20 20" fill="none">
  <path d="M16.183 9.79163H13.333C12.9913 9.79163 12.708 9.50829 12.708 9.16663V3.34162C12.708 2.72496 12.9497 2.14996 13.383 1.71663C13.8163 1.28329 14.3913 1.04163 15.008 1.04163H15.0163C16.058 1.04996 17.0413 1.45829 17.7913 2.19996C18.5413 2.95829 18.9497 3.95829 18.9497 4.99996V7.01662C18.958 8.67496 17.8413 9.79163 16.183 9.79163ZM13.958 8.54163H16.183C17.1497 8.54163 17.708 7.98329 17.708 7.01662V4.99996C17.708 4.28329 17.4247 3.59996 16.9163 3.08329C16.408 2.58329 15.7247 2.29996 15.0163 2.29163C15.0163 2.29163 15.0163 2.29163 15.008 2.29163C14.733 2.29163 14.4663 2.39996 14.2663 2.59996C14.0663 2.79996 13.958 3.05829 13.958 3.34162V8.54163Z" fill="currentColor"/>
  <path d="M7.50033 19.4416C7.10866 19.4416 6.74199 19.2916 6.46699 19.0083L5.08366 17.6166C5.00866 17.5416 4.89199 17.5333 4.80866 17.6L3.37533 18.6666C2.93366 19 2.35033 19.0583 1.85033 18.8083C1.35033 18.5583 1.04199 18.0583 1.04199 17.5V4.99996C1.04199 2.48329 2.48366 1.04163 5.00033 1.04163H15.0003C15.342 1.04163 15.6253 1.32496 15.6253 1.66663C15.6253 2.00829 15.342 2.29163 15.0003 2.29163C14.4253 2.29163 13.9587 2.75829 13.9587 3.33329V17.5C13.9587 18.0583 13.6503 18.5583 13.1503 18.8083C12.6503 19.0583 12.067 19.0083 11.6253 18.675L10.2003 17.6083C10.117 17.5416 10.0003 17.5583 9.93366 17.625L8.53366 19.025C8.25866 19.2916 7.89199 19.4416 7.50033 19.4416ZM4.92533 16.3083C5.30866 16.3083 5.68366 16.45 5.96699 16.7416L7.35033 18.1333C7.40033 18.1833 7.46699 18.1916 7.50033 18.1916C7.53366 18.1916 7.60033 18.1833 7.65033 18.1333L9.05033 16.7333C9.56699 16.2166 10.3837 16.1666 10.9587 16.6083L12.3753 17.6666C12.467 17.7333 12.5503 17.7083 12.592 17.6833C12.6337 17.6583 12.7087 17.6083 12.7087 17.5V3.33329C12.7087 2.95829 12.8003 2.59996 12.9587 2.29163H5.00033C3.15033 2.29163 2.29199 3.14996 2.29199 4.99996V17.5C2.29199 17.6166 2.36699 17.6666 2.40866 17.6916C2.45866 17.7166 2.54199 17.7333 2.62533 17.6666L4.05033 16.6C4.30866 16.4083 4.61699 16.3083 4.92533 16.3083Z" fill="currentColor"/>
  <path d="M10 11.4667H7.5C7.15833 11.4667 6.875 11.1833 6.875 10.8417C6.875 10.5 7.15833 10.2167 7.5 10.2167H10C10.3417 10.2167 10.625 10.5 10.625 10.8417C10.625 11.1833 10.3417 11.4667 10 11.4667Z" fill="currentColor"/>
  <path d="M10 8.1333H7.5C7.15833 8.1333 6.875 7.84997 6.875 7.5083C6.875 7.16663 7.15833 6.8833 7.5 6.8833H10C10.3417 6.8833 10.625 7.16663 10.625 7.5083C10.625 7.84997 10.3417 8.1333 10 8.1333Z" fill="currentColor"/>
  <path d="M4.97591 8.34172C4.51758 8.34172 4.14258 7.96672 4.14258 7.50838C4.14258 7.05005 4.51758 6.67505 4.97591 6.67505C5.43424 6.67505 5.80924 7.05005 5.80924 7.50838C5.80924 7.96672 5.43424 8.34172 4.97591 8.34172Z" fill="currentColor"/>
  <path d="M4.97591 11.675C4.51758 11.675 4.14258 11.3 4.14258 10.8416C4.14258 10.3833 4.51758 10.0083 4.97591 10.0083C5.43424 10.0083 5.80924 10.3833 5.80924 10.8416C5.80924 11.3 5.43424 11.675 4.97591 11.675Z" fill="currentColor"/>
</svg>