<svg viewBox='0 0 20 20' fill="none" xmlns="http://www.w3.org/2000/svg">
    <g fill="currentColor">
        <path d="M14.166 17.708H5.833c-3.042 0-4.792-1.75-4.792-4.791V7.083c0-3.041 1.75-4.791 4.792-4.791h8.334c3.041 0 4.791 1.75 4.791 4.791v5.834c0 3.041-1.75 4.791-4.791 4.791ZM5.833 3.542c-2.383 0-3.542 1.158-3.542 3.541v5.834c0 2.383 1.159 3.541 3.542 3.541h8.334c2.383 0 3.541-1.158 3.541-3.541V7.083c0-2.383-1.158-3.541-3.541-3.541H5.832Z"/>
        <path d="M10 10.725c-.7 0-1.408-.217-1.95-.658L5.442 7.983a.623.623 0 0 1 .775-.975l2.608 2.084c.633.508 1.708.508 2.342 0l2.608-2.084a.615.615 0 0 1 .875.1.615.615 0 0 1-.1.875l-2.608 2.084c-.534.441-1.242.658-1.942.658Z"/>
    </g>
</svg>
