<svg viewBox="0 0 30 30" fill="currentColor" xmlns="http://www.w3.org/2000/svg">
    <path d="M21.813 28.438c-1.413 0-2.9-.338-4.438-.988-1.5-.637-3.012-1.512-4.488-2.575a39.018 39.018 0 0 1-4.212-3.587 37.345 37.345 0 0 1-3.588-4.2c-1.074-1.5-1.937-3-2.55-4.45-.65-1.55-.974-3.05-.974-4.463 0-.975.175-1.9.512-2.763A6.676 6.676 0 0 1 3.75 2.987c.963-.95 2.063-1.425 3.237-1.425.488 0 .988.113 1.413.313.487.225.9.563 1.2 1.013l2.9 4.087c.262.363.463.713.6 1.063.162.374.25.75.25 1.112 0 .475-.137.938-.4 1.375-.188.338-.475.7-.837 1.063l-.85.887a.61.61 0 0 0 .037.088c.15.262.45.712 1.025 1.387.613.7 1.188 1.338 1.763 1.925.737.725 1.35 1.3 1.925 1.775.712.6 1.174.9 1.45 1.038l-.026.062.913-.9c.387-.388.762-.675 1.125-.863.688-.424 1.563-.5 2.438-.137a5.69 5.69 0 0 1 1.05.587l4.15 2.95c.462.313.8.713 1 1.188.187.475.274.913.274 1.35 0 .6-.137 1.2-.4 1.762a5.822 5.822 0 0 1-1 1.5c-.712.788-1.487 1.35-2.387 1.713a7.38 7.38 0 0 1-2.788.538Zm-14.825-25c-.688 0-1.326.3-1.938.9-.575.537-.975 1.125-1.225 1.762a5.47 5.47 0 0 0-.388 2.075c0 1.162.276 2.425.826 3.725.562 1.325 1.35 2.7 2.35 4.075S8.75 18.688 10 19.95a35.196 35.196 0 0 0 3.988 3.4c1.35.987 2.737 1.787 4.112 2.362 2.137.913 4.137 1.125 5.787.438a4.615 4.615 0 0 0 1.713-1.237c.287-.313.512-.65.7-1.05.15-.313.225-.638.225-.963 0-.2-.037-.4-.137-.625-.038-.075-.113-.212-.35-.375l-4.15-2.95c-.25-.175-.476-.3-.688-.387-.275-.113-.387-.226-.813.037-.25.125-.474.313-.724.563l-.95.937c-.488.475-1.238.587-1.813.375l-.337-.15c-.513-.275-1.113-.7-1.775-1.262-.6-.513-1.25-1.113-2.038-1.888a43.664 43.664 0 0 1-1.863-2.025c-.587-.688-1.012-1.275-1.274-1.763l-.15-.375c-.075-.287-.1-.45-.1-.625 0-.45.162-.85.475-1.162l.937-.975c.25-.25.438-.488.563-.7.1-.163.137-.3.137-.425 0-.1-.037-.25-.1-.4a3.586 3.586 0 0 0-.4-.662l-2.9-4.1a1.152 1.152 0 0 0-.462-.388 1.565 1.565 0 0 0-.626-.138Zm10.45 15.324-.2.85.337-.874c-.063-.013-.113 0-.137.024ZM23.125 12.188a.944.944 0 0 1-.938-.938c0-.45-.45-1.387-1.2-2.188-.737-.787-1.55-1.25-2.237-1.25a.944.944 0 0 1-.938-.937c0-.513.425-.938.938-.938 1.212 0 2.488.65 3.6 1.838 1.037 1.112 1.712 2.475 1.712 3.475a.944.944 0 0 1-.937.938ZM27.5 12.188a.944.944 0 0 1-.938-.938c0-4.313-3.5-7.813-7.812-7.813a.944.944 0 0 1-.938-.937c0-.512.425-.938.938-.938 5.337 0 9.688 4.35 9.688 9.688a.944.944 0 0 1-.938.938Z"/>
</svg>
