<svg viewBox='0 0 20 20' fill="none" xmlns="http://www.w3.org/2000/svg">
    <path d="M12.5 18.958h-5c-1.1 0-2.016-.108-2.791-.341a.639.639 0 0 1-.45-.65c.208-2.492 2.733-4.45 5.742-4.45 3.008 0 5.524 1.95 5.741 4.45a.615.615 0 0 1-.45.65c-.775.233-1.691.341-2.791.341ZM5.6 17.55c.55.108 1.176.158 1.9.158h5c.726 0 1.35-.05 1.9-.158-.441-1.6-2.266-2.783-4.4-2.783-2.133 0-3.958 1.183-4.4 2.783Z" fill="currentColor"/>
    <path d="M12.5 1.667h-5c-4.166 0-5.833 1.666-5.833 5.833v5c0 3.15.95 4.875 3.217 5.517.183-2.167 2.408-3.875 5.116-3.875 2.709 0 4.934 1.708 5.117 3.875 2.267-.642 3.217-2.367 3.217-5.517v-5c0-4.167-1.667-5.833-5.834-5.833ZM10 11.808a2.987 2.987 0 0 1-2.983-2.991A2.98 2.98 0 0 1 10 5.833a2.98 2.98 0 0 1 2.984 2.984A2.988 2.988 0 0 1 10 11.808Z" stroke="currentColor" stroke-width="1.5" stroke-linecap="round" stroke-linejoin="round"/>
    <path d="M10 12.433a3.617 3.617 0 0 1-3.608-3.616A3.61 3.61 0 0 1 10 5.208a3.61 3.61 0 0 1 3.608 3.609A3.617 3.617 0 0 1 10 12.433Zm0-5.975a2.363 2.363 0 0 0 0 4.725 2.363 2.363 0 0 0 0-4.725Z" fill="currentColor"/>
</svg>
